<svg width="81" height="80" viewBox="0 0 81 80" fill="none" xmlns="http://www.w3.org/2000/svg">
<path d="M70.5 44.1851C61.2357 47.9352 51.109 50.0003 40.5 50.0003C29.891 50.0003 19.7643 47.9352 10.5 44.1851M53.8333 20.0003V13.3337C53.8333 9.65176 50.8486 6.66699 47.1667 6.66699H33.8333C30.1514 6.66699 27.1667 9.65176 27.1667 13.3337V20.0003M40.5 40.0003H40.5333M17.1667 66.667H63.8333C67.5152 66.667 70.5 63.6822 70.5 60.0003V26.667C70.5 22.9851 67.5152 20.0003 63.8333 20.0003H17.1667C13.4848 20.0003 10.5 22.9851 10.5 26.667V60.0003C10.5 63.6822 13.4848 66.667 17.1667 66.667Z" stroke="#FEFEFE" stroke-width="3" stroke-linecap="round" stroke-linejoin="round"/>
</svg>
