<svg width="81" height="80" viewBox="0 0 81 80" fill="none" xmlns="http://www.w3.org/2000/svg">
<path d="M30.5013 16.6667H23.8346C20.1527 16.6667 17.168 19.6514 17.168 23.3333V63.3333C17.168 67.0152 20.1527 70 23.8346 70H57.168C60.8499 70 63.8346 67.0152 63.8346 63.3333V23.3333C63.8346 19.6514 60.8499 16.6667 57.168 16.6667H50.5013M30.5013 16.6667C30.5013 20.3486 33.4861 23.3333 37.168 23.3333H43.8346C47.5165 23.3333 50.5013 20.3486 50.5013 16.6667M30.5013 16.6667C30.5013 12.9848 33.4861 10 37.168 10H43.8346C47.5165 10 50.5013 12.9848 50.5013 16.6667M40.5013 40H50.5013M40.5013 53.3333H50.5013M30.5013 40H30.5346M30.5013 53.3333H30.5346" stroke="#FEFEFE" stroke-width="3" stroke-linecap="round"/>
</svg>
