<svg width="24" height="25" viewBox="0 0 24 25" fill="none" xmlns="http://www.w3.org/2000/svg">
<path fill-rule="evenodd" clip-rule="evenodd" d="M12.6 12.003L16.491 15.894L15.643 16.743L11.4 12.5V6.5H12.6V12.003ZM12 22.5C6.477 22.5 2 18.023 2 12.5C2 6.977 6.477 2.5 12 2.5C17.523 2.5 22 6.977 22 12.5C22 18.023 17.523 22.5 12 22.5ZM12 21.3C14.3339 21.3 16.5722 20.3729 18.2225 18.7225C19.8729 17.0722 20.8 14.8339 20.8 12.5C20.8 10.1661 19.8729 7.92778 18.2225 6.27746C16.5722 4.62714 14.3339 3.7 12 3.7C9.66609 3.7 7.42778 4.62714 5.77746 6.27746C4.12714 7.92778 3.2 10.1661 3.2 12.5C3.2 14.8339 4.12714 17.0722 5.77746 18.7225C7.42778 20.3729 9.66609 21.3 12 21.3Z" fill="#727272"/>
</svg>
