<svg width="48" height="48" viewBox="0 0 48 48" fill="none" xmlns="http://www.w3.org/2000/svg">
<path d="M9.02101 40V15.2768L9 10.8927L9.02101 8H22.3749C24.5258 8 26.5872 8.21092 28.5589 8.63277C30.5605 9.02448 32.338 9.77778 33.8915 10.8927C35.4748 12.0075 36.7146 13.6045 37.6108 15.6836C38.5369 17.7627 39 20.4595 39 23.774C39 27.0885 38.5369 29.8154 37.6108 31.9548C36.6847 34.064 35.43 35.7062 33.8467 36.8814C32.2633 38.0565 30.4708 38.8701 28.4693 39.322C26.4975 39.774 24.4661 40 22.3749 40H9.02101ZM17.1767 32.7684H22.3749C25.0038 32.7684 27.0203 32.0753 28.4244 30.6893C29.8285 29.2731 30.5306 26.968 30.5306 23.774C30.5306 20.58 29.8136 18.3653 28.3796 17.1299C26.9755 15.8644 24.9739 15.2316 22.3749 15.2316H17.1767V32.7684Z" fill="#2A5AB9"/>
</svg>
