<svg width="81" height="80" viewBox="0 0 81 80" fill="none" xmlns="http://www.w3.org/2000/svg">
<path d="M33.8333 20H17.1667C13.4848 20 10.5 22.9848 10.5 26.6667V56.6667C10.5 60.3486 13.4848 63.3333 17.1667 63.3333H63.8333C67.5152 63.3333 70.5 60.3486 70.5 56.6667V26.6667C70.5 22.9848 67.5152 20 63.8333 20H47.1667M33.8333 20V16.6667C33.8333 12.9848 36.8181 10 40.5 10C44.1819 10 47.1667 12.9848 47.1667 16.6667V20M33.8333 20C33.8333 23.6819 36.8181 26.6667 40.5 26.6667C44.1819 26.6667 47.1667 23.6819 47.1667 20M30.5 46.6667C34.1819 46.6667 37.1667 43.6819 37.1667 40C37.1667 36.3181 34.1819 33.3333 30.5 33.3333C26.8181 33.3333 23.8333 36.3181 23.8333 40C23.8333 43.6819 26.8181 46.6667 30.5 46.6667ZM30.5 46.6667C34.8541 46.6667 38.558 49.4494 39.9308 53.3333M30.5 46.6667C26.1459 46.6667 22.4416 49.4494 21.0688 53.3333M50.5 36.6667H60.5M50.5 50H57.1667" stroke="#FEFEFE" stroke-width="3" stroke-linecap="round" stroke-linejoin="round"/>
</svg>
