<svg width="48" height="48" viewBox="0 0 48 48" fill="none" xmlns="http://www.w3.org/2000/svg">
<path d="M24 5.66699L9 12.3337V22.3337C9 31.5837 15.4 40.2337 24 42.3337C32.6 40.2337 39 31.5837 39 22.3337V12.3337L24 5.66699ZM24 12.167C24.9889 12.167 25.9556 12.4602 26.7779 13.0096C27.6001 13.5591 28.241 14.3399 28.6194 15.2536C28.9978 16.1672 29.0969 17.1725 28.9039 18.1424C28.711 19.1123 28.2348 20.0033 27.5355 20.7025C26.8363 21.4018 25.9454 21.878 24.9755 22.0709C24.0055 22.2638 23.0002 22.1648 22.0866 21.7864C21.173 21.408 20.3921 20.7671 19.8427 19.9448C19.2932 19.1226 19 18.1559 19 17.167C19 15.8409 19.5268 14.5691 20.4645 13.6315C21.4021 12.6938 22.6739 12.167 24 12.167ZM24 25.3337C27.3333 25.3337 34 27.1503 34 30.467C32.9054 32.1172 31.4194 33.4709 29.6745 34.4073C27.9297 35.3437 25.9802 35.8337 24 35.8337C22.0198 35.8337 20.0703 35.3437 18.3255 34.4073C16.5806 33.4709 15.0946 32.1172 14 30.467C14 27.1503 20.6667 25.3337 24 25.3337Z" fill="#2A5AB9"/>
</svg>
