<svg width="24" height="25" viewBox="0 0 24 25" fill="none" xmlns="http://www.w3.org/2000/svg">
<path d="M12 3C16.1421 3 19.5 6.35786 19.5 10.5C19.5 13.3125 17.728 16.1948 15.8086 18.4238C14.8585 19.5272 13.8932 20.4468 13.1377 21.0879C12.7596 21.4087 12.4384 21.6561 12.2021 21.8203C12.1222 21.8759 12.0541 21.9181 12 21.9512C11.9459 21.9181 11.8778 21.8759 11.7979 21.8203C11.5616 21.6561 11.2404 21.4087 10.8623 21.0879C10.1068 20.4468 9.14153 19.5272 8.19141 18.4238C6.27197 16.1948 4.5 13.3125 4.5 10.5C4.5 6.35786 7.85786 3 12 3Z" stroke="#727272"/>
<circle cx="12" cy="9.5" r="2.5" stroke="#727272"/>
</svg>
