<svg width="24" height="25" viewBox="0 0 24 25" fill="none" xmlns="http://www.w3.org/2000/svg">
<path d="M12.6641 12.292C12.6641 9.90259 13.0623 8.10391 13.8588 6.89594C14.6552 5.68797 15.7968 5.08398 17.2836 5.08398C18.8898 5.08398 20.0645 5.68133 20.8079 6.87603C21.5513 8.05745 21.923 9.86277 21.923 12.292C21.923 14.6814 21.5181 16.4801 20.7084 17.688C19.9119 18.896 18.7305 19.5 17.1641 19.5C16.3543 19.5 15.6641 19.3407 15.0933 19.0221C14.5225 18.6902 14.0579 18.219 13.6995 17.6084C13.3411 16.9845 13.0756 16.2278 12.903 15.3385C12.7437 14.4491 12.6641 13.4336 12.6641 12.292ZM14.5756 12.292C14.5756 13.2477 14.622 14.1172 14.715 14.9004C14.8079 15.6836 14.9539 16.3606 15.153 16.9314C15.3654 17.4889 15.6309 17.9203 15.9495 18.2256C16.2813 18.531 16.6796 18.6836 17.1442 18.6836C18.1929 18.6836 18.9296 18.1659 19.3544 17.1305C19.7924 16.0951 20.0114 14.4823 20.0114 12.292C20.0114 11.3362 19.9716 10.4668 19.892 9.68356C19.8123 8.90037 19.6663 8.23002 19.4539 7.67249C19.2415 7.11497 18.9561 6.68355 18.5977 6.37824C18.2526 6.07293 17.8145 5.92027 17.2836 5.92027C16.288 5.92027 15.5844 6.43797 15.1729 7.47338C14.7747 8.49551 14.5756 10.1017 14.5756 12.292Z" fill="#727272"/>
<path d="M2.04688 12.292C2.04688 9.90259 2.44511 8.10391 3.24157 6.89594C4.03804 5.68797 5.17963 5.08398 6.66637 5.08398C8.27257 5.08398 9.44735 5.68133 10.1907 6.87603C10.9341 8.05745 11.3058 9.86277 11.3058 12.292C11.3058 14.6814 10.9009 16.4801 10.0912 17.688C9.2947 18.896 8.11328 19.5 6.5469 19.5C5.73716 19.5 5.04689 19.3407 4.47609 19.0221C3.90529 18.6902 3.44069 18.219 3.08228 17.6084C2.72387 16.9845 2.45838 16.2278 2.28581 15.3385C2.12652 14.4491 2.04688 13.4336 2.04688 12.292ZM3.95839 12.292C3.95839 13.2477 4.00485 14.1172 4.09777 14.9004C4.19069 15.6836 4.33671 16.3606 4.53583 16.9314C4.74822 17.4889 5.0137 17.9203 5.33229 18.2256C5.66415 18.531 6.06238 18.6836 6.52699 18.6836C7.57566 18.6836 8.31239 18.1659 8.73717 17.1305C9.17523 16.0951 9.39426 14.4823 9.39426 12.292C9.39426 11.3362 9.35443 10.4668 9.27479 9.68356C9.19514 8.90037 9.04912 8.23002 8.83673 7.67249C8.62434 7.11497 8.33894 6.68355 7.98053 6.37824C7.6354 6.07293 7.19734 5.92027 6.66637 5.92027C5.67079 5.92027 4.96724 6.43797 4.55574 7.47338C4.15751 8.49551 3.95839 10.1017 3.95839 12.292Z" fill="#727272"/>
</svg>
