<svg width="24" height="24" viewBox="0 0 24 24" fill="none" xmlns="http://www.w3.org/2000/svg">
<path d="M20.72 19.1967L16.64 15.1167C17.14 14.4611 17.5189 13.7467 17.7767 12.9733C18.0344 12.2 18.1633 11.3989 18.1633 10.57C18.1633 9.52333 17.96 8.54667 17.5533 7.64C17.1644 6.71778 16.6256 5.91333 15.9367 5.22667C15.25 4.54 14.4456 3.99333 13.5233 3.58667C12.6011 3.19556 11.6167 3 10.57 3C9.52333 3 8.54667 3.19556 7.64 3.58667C6.71778 3.99333 5.91333 4.54 5.22667 5.22667C4.54 5.91333 3.99333 6.71778 3.58667 7.64C3.19556 8.54667 3 9.52333 3 10.57C3 11.6167 3.19556 12.6011 3.58667 13.5233C3.99333 14.4456 4.54 15.25 5.22667 15.9367C5.91333 16.6256 6.71778 17.1644 7.64 17.5533C8.54667 17.96 9.52333 18.1633 10.57 18.1633C11.3989 18.1633 12.2 18.0344 12.9733 17.7767C13.7467 17.5189 14.4611 17.14 15.1167 16.64L19.1967 20.72C19.4144 20.9067 19.6644 20.9956 19.9467 20.9867C20.2267 20.98 20.4689 20.8756 20.6733 20.6733C20.8756 20.4689 20.98 20.2267 20.9867 19.9467C20.9956 19.6644 20.9067 19.4144 20.72 19.1967ZM5.15667 10.57C5.15667 9.82111 5.30444 9.11778 5.6 8.46C5.88222 7.80444 6.26556 7.23444 6.75 6.75C7.23444 6.26556 7.80444 5.88222 8.46 5.6C9.11778 5.30444 9.82111 5.15667 10.57 5.15667C11.3211 5.15667 12.0244 5.30444 12.68 5.6C13.3356 5.88222 13.91 6.26556 14.4033 6.75C14.8944 7.23444 15.2811 7.80444 15.5633 8.46C15.8433 9.11778 15.9833 9.82111 15.9833 10.57C15.9833 11.3211 15.8433 12.0244 15.5633 12.68C15.2811 13.3356 14.8944 13.91 14.4033 14.4033C13.91 14.8944 13.3356 15.2811 12.68 15.5633C12.0244 15.8433 11.3211 15.9833 10.57 15.9833C9.82111 15.9833 9.11778 15.8433 8.46 15.5633C7.80444 15.2811 7.23444 14.8944 6.75 14.4033C6.26556 13.91 5.88222 13.3356 5.6 12.68C5.30444 12.0244 5.15667 11.3211 5.15667 10.57Z" fill="#A8A8A8"/>
</svg>
