<svg width="24" height="25" viewBox="0 0 24 25" fill="none" xmlns="http://www.w3.org/2000/svg">
<path fill-rule="evenodd" clip-rule="evenodd" d="M12.0006 6.54978C15.8696 6.54978 19.0006 9.67578 19.0006 13.5248C19.0001 14.7708 18.6656 15.9939 18.0319 17.0667C17.3982 18.1395 16.4886 19.0229 15.3976 19.6248C14.9536 19.8706 14.4842 20.0674 13.9976 20.2118C13.7433 20.2871 13.5292 20.4604 13.4027 20.6935C13.34 20.8089 13.3006 20.9355 13.2869 21.0662C13.2732 21.1968 13.2853 21.3288 13.3226 21.4548C13.3599 21.5807 13.4216 21.6981 13.5043 21.8002C13.5869 21.9022 13.6889 21.987 13.8043 22.0497C14.0374 22.1763 14.3113 22.2051 14.5656 22.1298C15.1915 21.9442 15.7954 21.691 16.3666 21.3748C17.77 20.5998 18.9401 19.4629 19.7551 18.0823C20.5701 16.7017 21.0002 15.128 21.0006 13.5248C21.0006 8.56478 16.9686 4.55078 12.0006 4.55078C10.7606 4.55078 9.57559 4.80078 8.49859 5.25578C8.37758 5.3068 8.2678 5.38115 8.17552 5.4746C8.08325 5.56804 8.01028 5.67875 7.96078 5.80039C7.91129 5.92204 7.88624 6.05224 7.88707 6.18357C7.88789 6.31489 7.91458 6.44477 7.96559 6.56578C8.01661 6.68679 8.09097 6.79657 8.18441 6.88885C8.27786 6.98113 8.38856 7.0541 8.51021 7.10359C8.63185 7.15308 8.76205 7.17813 8.89338 7.17731C9.0247 7.17648 9.15458 7.1498 9.27559 7.09878C10.1381 6.73545 11.0647 6.54877 12.0006 6.54978ZM12.6006 21.5618C12.6148 21.2971 12.5233 21.0377 12.3463 20.8404C12.1693 20.6432 11.9212 20.5242 11.6566 20.5098C10.7393 20.4612 9.84056 20.2325 9.01159 19.8368C8.89262 19.7765 8.7628 19.7406 8.62975 19.7313C8.49671 19.7219 8.36313 19.7393 8.2369 19.7823C8.11066 19.8253 7.99431 19.8932 7.89469 19.9819C7.79507 20.0706 7.7142 20.1783 7.65683 20.2987C7.59946 20.4191 7.56676 20.5497 7.56065 20.683C7.55453 20.8162 7.57514 20.9493 7.62124 21.0745C7.66734 21.1996 7.73801 21.3143 7.82909 21.4117C7.92018 21.5091 8.02983 21.5874 8.15159 21.6418C9.21629 22.15 10.3705 22.4439 11.5486 22.5068C11.8134 22.521 12.073 22.4294 12.2703 22.2521C12.4676 22.0749 12.5864 21.8266 12.6006 21.5618ZM5.20859 9.18678C4.96869 9.07405 4.69384 9.06117 4.44445 9.15099C4.19506 9.24081 3.99153 9.42597 3.87859 9.66578C3.3752 10.7325 3.0864 11.8877 3.02859 13.0658C3.02203 13.197 3.04137 13.3282 3.0855 13.4519C3.12964 13.5756 3.19772 13.6894 3.28584 13.7868C3.37396 13.8842 3.48041 13.9633 3.5991 14.0196C3.71779 14.0759 3.8464 14.1082 3.97759 14.1148C4.10878 14.1213 4.23998 14.102 4.3637 14.0579C4.48742 14.0137 4.60123 13.9457 4.69864 13.8575C4.79605 13.7694 4.87514 13.663 4.93142 13.5443C4.98769 13.4256 5.02003 13.297 5.02659 13.1658C5.07159 12.2478 5.29659 11.3468 5.68659 10.5178C5.7426 10.399 5.77467 10.2704 5.78096 10.1392C5.78725 10.008 5.76764 9.87688 5.72326 9.75328C5.67887 9.62969 5.61057 9.51605 5.52227 9.41884C5.43396 9.32164 5.32738 9.24279 5.20859 9.18678ZM6.75259 19.6188C6.9496 19.4413 7.06807 19.1929 7.08195 18.9281C7.09583 18.6633 7.00398 18.4039 6.82659 18.2068C6.21257 17.5231 5.73711 16.7267 5.42659 15.8618C5.33665 15.6128 5.15167 15.4097 4.9122 15.2969C4.67273 15.1841 4.39831 15.1709 4.14909 15.2601C3.89987 15.3493 3.69619 15.5336 3.58268 15.7728C3.46918 16.0119 3.45513 16.2863 3.54359 16.5358C3.94196 17.6457 4.55228 18.6677 5.34059 19.5448C5.51805 19.7418 5.76649 19.8603 6.03127 19.8741C6.29606 19.888 6.55552 19.7962 6.75259 19.6188Z" fill="#727272"/>
<path fill-rule="evenodd" clip-rule="evenodd" d="M10.1954 2.73279C10.0946 2.68249 9.98488 2.65255 9.87252 2.64467C9.76016 2.6368 9.64736 2.65115 9.54055 2.68691C9.43374 2.72267 9.33503 2.77913 9.25006 2.85306C9.16509 2.927 9.09553 3.01695 9.04536 3.11779L7.71436 5.80079C7.65099 5.92874 7.61349 6.06793 7.60397 6.21039C7.59446 6.35285 7.61314 6.49579 7.65893 6.63102C7.70472 6.76626 7.77673 6.89114 7.87083 6.99852C7.96494 7.10589 8.07929 7.19366 8.20736 7.25679L10.8984 8.58579C10.9997 8.64051 11.1111 8.67424 11.2257 8.68496C11.3404 8.69567 11.4561 8.68316 11.5658 8.64817C11.6756 8.61318 11.7771 8.55643 11.8644 8.4813C11.9518 8.40618 12.023 8.31422 12.074 8.21093C12.125 8.10764 12.1546 7.99513 12.1611 7.88013C12.1676 7.76513 12.1509 7.65 12.1119 7.54162C12.0729 7.43323 12.0125 7.33382 11.9342 7.24931C11.8559 7.16481 11.7614 7.09695 11.6564 7.04979L9.53136 5.99979L10.5844 3.88179C10.6344 3.78089 10.6641 3.6711 10.6716 3.55873C10.6792 3.44635 10.6646 3.33358 10.6285 3.22686C10.5925 3.12015 10.5358 3.02159 10.4616 2.93681C10.3875 2.85203 10.2963 2.78271 10.1954 2.73279Z" fill="#727272"/>
</svg>
