<svg width="35" height="35" viewBox="0 0 35 35" fill="none" xmlns="http://www.w3.org/2000/svg">
<path opacity="0.2" d="M30.625 8.75L17.5 13.125L4.375 8.75L17.5 4.375L30.625 8.75Z" fill="#005AAB"/>
<path d="M4.375 8.75V19.6875" stroke="#005AAB" stroke-width="1.5" stroke-linecap="round" stroke-linejoin="round"/>
<path d="M7.41016 29.531C8.50454 27.8524 10.0004 26.4734 11.7622 25.5189C13.5241 24.5644 15.4962 24.0645 17.5 24.0645C19.5038 24.0645 21.4759 24.5644 23.2378 25.5189C24.9996 26.4734 26.4955 27.8524 27.5898 29.531" stroke="#005AAB" stroke-width="1.5" stroke-linecap="round" stroke-linejoin="round"/>
<path d="M30.625 8.75L17.5 13.125L4.375 8.75L17.5 4.375L30.625 8.75Z" stroke="#005AAB" stroke-width="1.5" stroke-linecap="round" stroke-linejoin="round"/>
<path d="M23.1465 11.2383C24.1498 12.3339 24.8127 13.6978 25.0543 15.1636C25.2959 16.6294 25.1059 18.1339 24.5073 19.4936C23.9088 20.8533 22.9276 22.0095 21.6834 22.8212C20.4391 23.6329 18.9856 24.0652 17.5 24.0652C16.0144 24.0652 14.5609 23.6329 13.3166 22.8212C12.0724 22.0095 11.0912 20.8533 10.4927 19.4936C9.89411 18.1339 9.70407 16.6294 9.94571 15.1636C10.1873 13.6978 10.8502 12.3339 11.8535 11.2383" stroke="#005AAB" stroke-width="1.5" stroke-linecap="round" stroke-linejoin="round"/>
</svg>
