<svg width="48" height="48" viewBox="0 0 48 48" fill="none" xmlns="http://www.w3.org/2000/svg">
<path d="M24 6C14.0593 6 6 14.0593 6 24C6 33.9407 14.0593 42 24 42C33.9407 42 42 33.9407 42 24C42 14.0593 33.9407 6 24 6ZM30.416 27.8077H17.584C17.3211 27.8075 17.0636 27.7324 16.8418 27.5913C16.6199 27.4501 16.4429 27.2487 16.3313 27.0105C16.2197 26.7724 16.1783 26.5075 16.2118 26.2467C16.2453 25.9859 16.3524 25.74 16.5205 25.5378L22.9356 17.8281C23.0655 17.6719 23.2282 17.5462 23.4122 17.46C23.5961 17.3737 23.7968 17.329 24 17.329C24.2032 17.329 24.4039 17.3737 24.5878 17.46C24.7718 17.5462 24.9345 17.6719 25.0644 17.8281L31.4795 25.5378C31.6476 25.74 31.7547 25.9859 31.7882 26.2467C31.8217 26.5075 31.7803 26.7724 31.6687 27.0105C31.5571 27.2487 31.3801 27.4501 31.1582 27.5913C30.9364 27.7324 30.6789 27.8075 30.416 27.8077Z" fill="#2A5AB9"/>
</svg>
