<svg width="48" height="48" viewBox="0 0 48 48" fill="none" xmlns="http://www.w3.org/2000/svg">
<path d="M28.0482 6H19.9541C18.1631 6 16.6992 7.46998 16.6992 9.28996V10.9349C16.6992 12.7549 18.1458 14.2249 19.9369 14.2249H28.0482C29.8393 14.2249 31.2859 12.7549 31.2859 10.9349V9.28996C31.3031 7.46998 29.8393 6 28.0482 6Z" fill="#2A5AB9"/>
<path d="M33.0241 10.9351C33.0241 13.7175 30.7853 15.9925 28.0471 15.9925H19.9529C17.2147 15.9925 14.9759 13.7175 14.9759 10.9351C14.9759 9.95508 13.9426 9.34259 13.0815 9.79758C10.6533 11.1101 9 13.7175 9 16.71V33.1773C9 37.4823 12.4615 40.9997 16.698 40.9997H31.302C35.5385 40.9997 39 37.4823 39 33.1773V16.71C39 13.7175 37.3467 11.1101 34.9185 9.79758C34.0574 9.34259 33.0241 9.95508 33.0241 10.9351ZM29.752 24.7774L22.8634 31.7773C22.6051 32.0398 22.2778 32.1623 21.9506 32.1623C21.6234 32.1623 21.2962 32.0398 21.0379 31.7773L18.4547 29.1524C17.9552 28.6449 17.9552 27.8049 18.4547 27.2974C18.9541 26.7899 19.7807 26.7899 20.2801 27.2974L21.9506 28.9949L27.9265 22.9224C28.4259 22.4149 29.2526 22.4149 29.752 22.9224C30.2514 23.4299 30.2514 24.2699 29.752 24.7774Z" fill="#2A5AB9"/>
</svg>
