<svg width="48" height="48" viewBox="0 0 48 48" fill="none" xmlns="http://www.w3.org/2000/svg">
<path d="M38.4643 10H9.53571C8.59831 10.0011 7.69961 10.3701 7.03676 11.0263C6.37392 11.6824 6.00106 12.5721 6 13.5V34.5C6.00106 35.4279 6.37392 36.3176 7.03676 36.9737C7.69961 37.6299 8.59831 37.9989 9.53571 38H38.4643C39.4017 37.9989 40.3004 37.6299 40.9632 36.9737C41.6261 36.3176 41.9989 35.4279 42 34.5V13.5C41.9989 12.5721 41.6261 11.6824 40.9632 11.0263C40.3004 10.3701 39.4017 10.0011 38.4643 10V10ZM12.4286 34.5C12.4286 34.7532 12.327 34.996 12.1461 35.175C11.9653 35.354 11.72 35.4545 11.4643 35.4545H9.53571C9.27997 35.4545 9.0347 35.354 8.85386 35.175C8.67302 34.996 8.57143 34.7532 8.57143 34.5V32.5909C8.57143 32.3377 8.67302 32.095 8.85386 31.9159C9.0347 31.7369 9.27997 31.6364 9.53571 31.6364H11.4643C11.72 31.6364 11.9653 31.7369 12.1461 31.9159C12.327 32.095 12.4286 32.3377 12.4286 32.5909V34.5ZM12.4286 28.1364C12.4286 28.3895 12.327 28.6323 12.1461 28.8113C11.9653 28.9903 11.72 29.0909 11.4643 29.0909H9.53571C9.27997 29.0909 9.0347 28.9903 8.85386 28.8113C8.67302 28.6323 8.57143 28.3895 8.57143 28.1364V26.2273C8.57143 25.9741 8.67302 25.7313 8.85386 25.5523C9.0347 25.3733 9.27997 25.2727 9.53571 25.2727H11.4643C11.72 25.2727 11.9653 25.3733 12.1461 25.5523C12.327 25.7313 12.4286 25.9741 12.4286 26.2273V28.1364ZM12.4286 21.7727C12.4286 22.0259 12.327 22.2687 12.1461 22.4477C11.9653 22.6267 11.72 22.7273 11.4643 22.7273H9.53571C9.27997 22.7273 9.0347 22.6267 8.85386 22.4477C8.67302 22.2687 8.57143 22.0259 8.57143 21.7727V19.8636C8.57143 19.6105 8.67302 19.3677 8.85386 19.1887C9.0347 19.0097 9.27997 18.9091 9.53571 18.9091H11.4643C11.72 18.9091 11.9653 19.0097 12.1461 19.1887C12.327 19.3677 12.4286 19.6105 12.4286 19.8636V21.7727ZM12.4286 15.4091C12.4286 15.6623 12.327 15.905 12.1461 16.0841C11.9653 16.2631 11.72 16.3636 11.4643 16.3636H9.53571C9.27997 16.3636 9.0347 16.2631 8.85386 16.0841C8.67302 15.905 8.57143 15.6623 8.57143 15.4091V13.5C8.57143 13.2468 8.67302 13.004 8.85386 12.825C9.0347 12.646 9.27997 12.5455 9.53571 12.5455H11.4643C11.72 12.5455 11.9653 12.646 12.1461 12.825C12.327 13.004 12.4286 13.2468 12.4286 13.5V15.4091ZM31.8493 25.2727H16.1507C15.8097 25.2727 15.4827 25.1386 15.2416 24.9C15.0005 24.6613 14.865 24.3375 14.865 24C14.865 23.6625 15.0005 23.3387 15.2416 23.1C15.4827 22.8614 15.8097 22.7273 16.1507 22.7273H31.8493C32.1903 22.7273 32.5173 22.8614 32.7584 23.1C32.9995 23.3387 33.135 23.6625 33.135 24C33.135 24.3375 32.9995 24.6613 32.7584 24.9C32.5173 25.1386 32.1903 25.2727 31.8493 25.2727ZM39.4286 34.5C39.4286 34.7532 39.327 34.996 39.1461 35.175C38.9653 35.354 38.72 35.4545 38.4643 35.4545H36.5357C36.28 35.4545 36.0347 35.354 35.8539 35.175C35.673 34.996 35.5714 34.7532 35.5714 34.5V32.5909C35.5714 32.3377 35.673 32.095 35.8539 31.9159C36.0347 31.7369 36.28 31.6364 36.5357 31.6364H38.4643C38.72 31.6364 38.9653 31.7369 39.1461 31.9159C39.327 32.095 39.4286 32.3377 39.4286 32.5909V34.5ZM39.4286 28.1364C39.4286 28.3895 39.327 28.6323 39.1461 28.8113C38.9653 28.9903 38.72 29.0909 38.4643 29.0909H36.5357C36.28 29.0909 36.0347 28.9903 35.8539 28.8113C35.673 28.6323 35.5714 28.3895 35.5714 28.1364V26.2273C35.5714 25.9741 35.673 25.7313 35.8539 25.5523C36.0347 25.3733 36.28 25.2727 36.5357 25.2727H38.4643C38.72 25.2727 38.9653 25.3733 39.1461 25.5523C39.327 25.7313 39.4286 25.9741 39.4286 26.2273V28.1364ZM39.4286 21.7727C39.4286 22.0259 39.327 22.2687 39.1461 22.4477C38.9653 22.6267 38.72 22.7273 38.4643 22.7273H36.5357C36.28 22.7273 36.0347 22.6267 35.8539 22.4477C35.673 22.2687 35.5714 22.0259 35.5714 21.7727V19.8636C35.5714 19.6105 35.673 19.3677 35.8539 19.1887C36.0347 19.0097 36.28 18.9091 36.5357 18.9091H38.4643C38.72 18.9091 38.9653 19.0097 39.1461 19.1887C39.327 19.3677 39.4286 19.6105 39.4286 19.8636V21.7727ZM39.4286 15.4091C39.4286 15.6623 39.327 15.905 39.1461 16.0841C38.9653 16.2631 38.72 16.3636 38.4643 16.3636H36.5357C36.28 16.3636 36.0347 16.2631 35.8539 16.0841C35.673 15.905 35.5714 15.6623 35.5714 15.4091V13.5C35.5714 13.2468 35.673 13.004 35.8539 12.825C36.0347 12.646 36.28 12.5455 36.5357 12.5455H38.4643C38.72 12.5455 38.9653 12.646 39.1461 12.825C39.327 13.004 39.4286 13.2468 39.4286 13.5V15.4091Z" fill="#2A5AB9"/>
</svg>
