<svg width="14" height="14" viewBox="0 0 14 14" fill="none" xmlns="http://www.w3.org/2000/svg">
<g clip-path="url(#clip0_1998_13459)">
<path fill-rule="evenodd" clip-rule="evenodd" d="M4.998 1.24805C4.03059 1.24805 3.24609 2.03252 3.24609 3.00053C3.24609 3.96854 4.03059 4.75301 4.998 4.75301C5.96541 4.75301 6.74991 3.96854 6.74991 3.00053C6.74991 2.03252 5.96541 1.24805 4.998 1.24805ZM1.99609 3.00053C1.99609 1.34245 3.33995 -0.00195312 4.998 -0.00195312C6.65605 -0.00195312 7.99991 1.34245 7.99991 3.00053C7.99991 4.65861 6.65605 6.00301 4.998 6.00301C3.33995 6.00301 1.99609 4.65861 1.99609 3.00053ZM0 12.3729C0 9.45551 2.19041 7.00147 4.99791 7.00147C7.52008 7.00147 9.54421 8.98203 9.9296 11.4998H8.23559C7.35465 11.4998 6.62574 12.1507 6.5036 12.9979H0.625C0.279822 12.9979 0 12.718 0 12.3729ZM7.5292 12.9979C7.6327 12.7076 7.90976 12.4998 8.23559 12.4998H8.48559H13.0263C13.4405 12.4998 13.7763 12.8356 13.7763 13.2498C13.7763 13.664 13.4405 13.9998 13.0263 13.9998H8.23584C7.82162 13.9998 7.48584 13.664 7.48584 13.2498C7.48584 13.1614 7.50113 13.0766 7.5292 12.9979Z" fill="#005AAB"/>
</g>
<defs>
<clipPath id="clip0_1998_13459">
<rect width="14" height="14" fill="white"/>
</clipPath>
</defs>
</svg>
